<svg width="38" height="36" viewBox="0 0 38 36" fill="none" xmlns="http://www.w3.org/2000/svg">
<path d="M20.5438 13.6875L17.2188 10.5375L9.06458 18.2625C8.90625 18.4125 8.7875 18.5815 8.70833 18.7695C8.62917 18.9575 8.58958 19.151 8.58958 19.35V21.1125C8.58958 21.3125 8.66875 21.4875 8.82708 21.6375C8.98542 21.7875 9.17014 21.8625 9.38125 21.8625H11.2417C11.4528 21.8625 11.6576 21.825 11.856 21.75C12.0544 21.675 12.2323 21.5625 12.3896 21.4125L20.5438 13.6875ZM21.4937 12.7875L22.6021 11.7375C22.9188 11.4375 23.0771 11.0875 23.0771 10.6875C23.0771 10.2875 22.9188 9.9375 22.6021 9.6375L21.4937 8.5875C21.1771 8.2875 20.8076 8.1375 20.3854 8.1375C19.9632 8.1375 19.5938 8.2875 19.2771 8.5875L18.1688 9.6375L21.4937 12.7875ZM15.8333 30C13.6431 30 11.5847 29.606 9.65833 28.818C7.73195 28.03 6.05625 26.9615 4.63125 25.6125C3.20625 24.2625 2.07839 22.675 1.24767 20.85C0.416945 19.025 0.00105556 17.075 0 15C0 12.925 0.415889 10.975 1.24767 9.15C2.07944 7.325 3.20731 5.7375 4.63125 4.3875C6.05625 3.0375 7.73195 1.969 9.65833 1.182C11.5847 0.395 13.6431 0.001 15.8333 0C18.0236 0 20.0819 0.394 22.0083 1.182C23.9347 1.97 25.6104 3.0385 27.0354 4.3875C28.4604 5.7375 29.5888 7.325 30.4206 9.15C31.2524 10.975 31.6677 12.925 31.6667 15C31.6667 17.075 31.2508 19.025 30.419 20.85C29.5872 22.675 28.4594 24.2625 27.0354 25.6125C25.6104 26.9625 23.9347 28.0315 22.0083 28.8195C20.0819 29.6075 18.0236 30.001 15.8333 30ZM15.8333 27C19.3694 27 22.3646 25.8375 24.8187 23.5125C27.2729 21.1875 28.5 18.35 28.5 15C28.5 11.65 27.2729 8.8125 24.8187 6.4875C22.3646 4.1625 19.3694 3 15.8333 3C12.2972 3 9.30208 4.1625 6.84792 6.4875C4.39375 8.8125 3.16667 11.65 3.16667 15C3.16667 18.35 4.39375 21.1875 6.84792 23.5125C9.30208 25.8375 12.2972 27 15.8333 27Z" fill="black"/>
</svg>
