<svg width="27" height="28" viewBox="0 0 27 28" fill="none" xmlns="http://www.w3.org/2000/svg">
<path d="M24.9 28L15.45 18.2C14.7 18.8222 13.8375 19.3148 12.8625 19.6778C11.8875 20.0407 10.85 20.2222 9.75 20.2222C7.025 20.2222 4.719 19.2433 2.832 17.2853C0.945 15.3274 0.001 12.936 0 10.1111C0 7.28519 0.944 4.89378 2.832 2.93689C4.72 0.98 7.026 0.00103704 9.75 0C12.475 0 14.781 0.978963 16.668 2.93689C18.555 4.89481 19.499 7.28622 19.5 10.1111C19.5 11.2519 19.325 12.3278 18.975 13.3389C18.625 14.35 18.15 15.2444 17.55 16.0222L27 25.8222L24.9 28ZM9.75 17.1111C11.625 17.1111 13.219 16.4303 14.532 15.0687C15.845 13.707 16.501 12.0545 16.5 10.1111C16.5 8.16667 15.8435 6.51363 14.5305 5.152C13.2175 3.79037 11.624 3.11007 9.75 3.11111C7.875 3.11111 6.281 3.79193 4.968 5.15356C3.655 6.51519 2.999 8.1677 3 10.1111C3 12.0556 3.6565 13.7086 4.9695 15.0702C6.2825 16.4319 7.876 17.1121 9.75 17.1111Z" fill="black"/>
</svg>
