<svg width="38" height="30" viewBox="0 0 38 30" fill="none" xmlns="http://www.w3.org/2000/svg">
<path d="M4.75 19.6875C4.75 19.4389 4.87511 19.2004 5.09781 19.0246C5.32051 18.8488 5.62256 18.75 5.9375 18.75H13.0625C13.3774 18.75 13.6795 18.8488 13.9022 19.0246C14.1249 19.2004 14.25 19.4389 14.25 19.6875C14.25 19.9361 14.1249 20.1746 13.9022 20.3504C13.6795 20.5262 13.3774 20.625 13.0625 20.625H5.9375C5.62256 20.625 5.32051 20.5262 5.09781 20.3504C4.87511 20.1746 4.75 19.9361 4.75 19.6875ZM4.75 14.0625C4.75 13.8139 4.87511 13.5754 5.09781 13.3996C5.32051 13.2238 5.62256 13.125 5.9375 13.125H22.5625C22.8774 13.125 23.1795 13.2238 23.4022 13.3996C23.6249 13.5754 23.75 13.8139 23.75 14.0625C23.75 14.3111 23.6249 14.5496 23.4022 14.7254C23.1795 14.9012 22.8774 15 22.5625 15H5.9375C5.62256 15 5.32051 14.9012 5.09781 14.7254C4.87511 14.5496 4.75 14.3111 4.75 14.0625ZM4.75 8.4375C4.75 8.18886 4.87511 7.9504 5.09781 7.77459C5.32051 7.59877 5.62256 7.5 5.9375 7.5H32.0625C32.3774 7.5 32.6795 7.59877 32.9022 7.77459C33.1249 7.9504 33.25 8.18886 33.25 8.4375C33.25 8.68614 33.1249 8.9246 32.9022 9.10041C32.6795 9.27623 32.3774 9.375 32.0625 9.375H5.9375C5.62256 9.375 5.32051 9.27623 5.09781 9.10041C4.87511 8.9246 4.75 8.68614 4.75 8.4375Z" fill="black"/>
</svg>
