<svg width="34" height="34" viewBox="0 0 34 34" fill="none" xmlns="http://www.w3.org/2000/svg">
<path d="M1 8.11111H33M13 15.2222V25.8889M21 15.2222V25.8889M3 8.11111L5 29.4444C5 30.3874 5.42143 31.2918 6.17157 31.9586C6.92172 32.6254 7.93913 33 9 33H25C26.0609 33 27.0783 32.6254 27.8284 31.9586C28.5786 31.2918 29 30.3874 29 29.4444L31 8.11111M11 8.11111V2.77778C11 2.30628 11.2107 1.8541 11.5858 1.5207C11.9609 1.1873 12.4696 1 13 1H21C21.5304 1 22.0391 1.1873 22.4142 1.5207C22.7893 1.8541 23 2.30628 23 2.77778V8.11111" stroke="#FF0000" stroke-width="2" stroke-linecap="round" stroke-linejoin="round"/>
</svg>
