<svg width="49" height="44" viewBox="0 0 49 44" fill="none" xmlns="http://www.w3.org/2000/svg">
<path d="M38.7917 34.8333H10.2083V14.6667H38.7917M32.6667 1.83334V5.50001H16.3333V1.83334H12.25V5.50001H10.2083C7.94208 5.50001 6.125 7.13168 6.125 9.16668V34.8333C6.125 35.8058 6.55521 36.7384 7.32098 37.4261C8.08675 38.1137 9.12537 38.5 10.2083 38.5H38.7917C39.8746 38.5 40.9132 38.1137 41.679 37.4261C42.4448 36.7384 42.875 35.8058 42.875 34.8333V9.16668C42.875 8.19422 42.4448 7.26159 41.679 6.57395C40.9132 5.88632 39.8746 5.50001 38.7917 5.50001H36.75V1.83334M34.7083 22H24.5V31.1667H34.7083V22Z" fill="black"/>
</svg>
