<svg width="20" height="20" viewBox="0 0 20 20" fill="none" xmlns="http://www.w3.org/2000/svg">
<path d="M4.15959 18.5048C4.15954 18.5048 4.15946 18.5049 4.15936 18.5049C4.15692 18.5053 4.14048 18.5081 4.09526 18.511C4.04141 18.5145 3.95958 18.5174 3.82896 18.5193C3.56834 18.5232 3.14112 18.5233 2.41196 18.5211C2.41191 18.5211 2.41186 18.5211 2.41181 18.5211L1.09527 18.5162C1.10376 18.4795 1.11301 18.4397 1.12298 18.3971C1.18496 18.1318 1.27378 17.7585 1.38075 17.3127C1.59463 16.4214 1.88039 15.2433 2.16763 14.0666C2.45487 12.8898 2.74345 11.7151 2.96296 10.8308C3.07276 10.3884 3.16509 10.0195 3.23127 9.75945C3.2454 9.70395 3.25827 9.65366 3.26981 9.60887C3.31527 9.60699 3.37038 9.60515 3.43692 9.60355C3.9439 9.5913 4.9499 9.59141 6.9793 9.59162C7.26347 9.59165 7.56771 9.59168 7.89346 9.59168C9.50239 9.59168 10.7284 9.58954 11.5636 9.5858C11.981 9.58393 12.3017 9.58165 12.524 9.57903C12.635 9.57771 12.7229 9.5763 12.7867 9.57477L12.7927 9.57462C12.8369 9.57358 12.9077 9.5719 12.9543 9.56511L12.9639 9.56371L12.9639 9.56362C13.9173 9.40605 14.6107 8.65275 14.7529 7.69078L14.7531 7.68927C14.8562 6.97757 14.5508 6.18532 13.9986 5.71889L13.9979 5.7183C13.7875 5.54127 13.499 5.38281 13.2361 5.30092L13.2336 5.30012L13.2336 5.30013L13.0798 5.25313L13.0094 5.23163L12.9359 5.23131L9.1014 5.21422H9.10122C6.50324 5.20353 5.10986 5.19659 4.32937 5.18701C3.54088 5.17733 3.40413 5.16469 3.29783 5.14913C2.4312 5.0186 1.88348 4.75089 1.50384 4.35537C1.2384 4.07883 1.07902 3.78238 0.967172 3.3146C0.967147 3.31449 0.967122 3.31439 0.967098 3.31429L0.927186 3.14636L0.921324 1.986L0.921319 1.98509C0.918076 1.51381 0.916532 1.23179 0.918084 1.05802C1.03159 1.05577 1.19172 1.05397 1.41869 1.05267C2.2116 1.04814 3.77522 1.04974 6.89434 1.05295H6.89438C12.8665 1.0586 13.2331 1.05648 13.5864 1.12403C13.6364 1.1336 13.6862 1.14458 13.7517 1.15717L13.7522 1.15726C16.215 1.6284 18.1822 3.69583 18.5997 6.30175L18.5999 6.30271C18.6679 6.72166 18.6833 6.96605 18.6715 7.50851L18.6715 7.5089C18.6597 8.06964 18.6257 8.36788 18.5242 8.80853L18.524 8.80925C18.0642 10.8188 16.7071 12.4549 14.8964 13.2125C14.4609 13.3931 14.0484 13.5116 13.5058 13.6041L13.4989 13.6053C13.296 13.6398 13.2837 13.6419 9.95533 13.6483L9.95502 13.6483L6.58805 13.6568L6.20868 13.6578L6.10745 14.0234L6.07669 14.1345L6.07519 14.1399L6.07522 14.1399C6.07389 14.1449 6.07128 14.1548 6.06748 14.1691C6.02459 14.3309 5.83018 15.0643 5.61154 15.8969C5.22954 17.3489 5.17241 17.54 5.11133 17.6703L5.10995 17.6732L5.10996 17.6732C4.89239 18.1453 4.54367 18.4227 4.16158 18.5044L4.15969 18.5048M4.15959 18.5048L4.15936 18.5049C4.15958 18.5048 4.15969 18.5048 4.15969 18.5048M4.15959 18.5048L4.15969 18.5048M4.15959 18.5048C4.15966 18.5048 4.1597 18.5048 4.15969 18.5048" fill="#0A0A0A" stroke="#0A0A0A"/>
</svg>
