<svg width="39" height="28" viewBox="0 0 39 28" fill="none" xmlns="http://www.w3.org/2000/svg">
<path d="M32.5457 3.95979C32.5457 2.90959 32.1423 1.9024 31.4242 1.1598C30.7062 0.417191 29.7323 0 28.7168 0H22.9734V3.95979H28.7168V9.20652L22.0162 17.8191H15.3156V7.91959H7.65781C3.42687 7.91959 0 11.4636 0 15.8392V21.7789H3.82891C3.82891 25.0655 6.39427 27.7185 9.57227 27.7185C12.7503 27.7185 15.3156 25.0655 15.3156 21.7789H23.9307L32.5457 10.5924V3.95979ZM9.57227 23.7588C8.51932 23.7588 7.65781 22.8678 7.65781 21.7789H11.4867C11.4867 22.8678 10.6252 23.7588 9.57227 23.7588ZM11.4867 17.8191H3.82891V15.8392C3.82891 13.6613 5.55191 11.8794 7.65781 11.8794H11.4867V17.8191ZM32.5457 15.8392C29.3677 15.8392 26.8023 18.4922 26.8023 21.7789C26.8023 25.0655 29.3677 27.7185 32.5457 27.7185C35.7237 27.7185 38.2891 25.0655 38.2891 21.7789C38.2891 18.4922 35.7237 15.8392 32.5457 15.8392ZM32.5457 23.7588C31.4928 23.7588 30.6313 22.8678 30.6313 21.7789C30.6313 20.6899 31.4928 19.799 32.5457 19.799C33.5987 19.799 34.4602 20.6899 34.4602 21.7789C34.4602 22.8678 33.5987 23.7588 32.5457 23.7588ZM15.3156 5.93969H5.74336V1.9799H15.3156V5.93969Z" fill="black"/>
</svg>
