<svg width="37" height="37" viewBox="0 0 37 37" fill="none" xmlns="http://www.w3.org/2000/svg">
<path d="M0 36.6281V12.2094L18.1628 0L36.3255 12.2094V36.6281H0ZM4.54069 32.5583H31.7848V14.2443L18.1628 5.08723L4.54069 14.2443V32.5583ZM13.6221 30.5234H15.8924V22.3838C16.8384 22.3838 17.6429 22.0867 18.3058 21.4925C18.9687 20.8984 19.2994 20.178 19.2979 19.3315V13.2268H17.0276V19.3315H15.8924V13.2268H13.6221V19.3315H12.4869V13.2268H10.2166V19.3315C10.2166 20.1794 10.548 20.9004 11.211 21.4946C11.8739 22.0888 12.6776 22.3852 13.6221 22.3838V30.5234ZM22.7035 30.5234H24.9738V13.2268C23.7251 13.2268 22.6558 13.6256 21.7658 14.4233C20.8758 15.221 20.4316 16.1788 20.4331 17.2966V23.4013H22.7035V30.5234Z" fill="black"/>
</svg>
